<?xml version="1.0" encoding="UTF-8" standalone="no"?>
<!-- Created with Inkscape (http://www.inkscape.org/) -->

<svg
   version="1.1"
   id="svg1"
   width="186.0723"
   height="254.89503"
   viewBox="0 0 186.0723 254.89504"
   sodipodi:docname="logoblack22.png"
   xmlns:inkscape="http://www.inkscape.org/namespaces/inkscape"
   xmlns:sodipodi="http://sodipodi.sourceforge.net/DTD/sodipodi-0.dtd"
   xmlns:xlink="http://www.w3.org/1999/xlink"
   xmlns="http://www.w3.org/2000/svg"
   xmlns:svg="http://www.w3.org/2000/svg">
  <defs
     id="defs1">
    <linearGradient
       id="linearGradient2"
       inkscape:collect="always">
      <stop
         style="stop-color:#aa4400;stop-opacity:1"
         offset="0"
         id="stop2" />
      <stop
         style="stop-color:#445500;stop-opacity:1"
         offset="1"
         id="stop3" />
    </linearGradient>
    <linearGradient
       inkscape:collect="always"
       xlink:href="#linearGradient2"
       id="linearGradient3"
       x1="190.84787"
       y1="49.0373"
       x2="91.447937"
       y2="221.99319"
       gradientUnits="userSpaceOnUse" />
    <filter
       y="-0.051956959"
       height="1.1039139"
       inkscape:menu-tooltip="Darkens the edge with an inner blur and adds a flexible glow"
       inkscape:menu="Shadows and Glows"
       inkscape:label="Dark and Glow"
       style="color-interpolation-filters:sRGB"
       id="filter4"
       x="-0.074483702"
       width="1.1489674">
      <feGaussianBlur
         stdDeviation="5"
         result="result6"
         id="feGaussianBlur3" />
      <feComposite
         result="result8"
         in="SourceGraphic"
         operator="atop"
         in2="result6"
         id="feComposite3" />
      <feComposite
         result="result9"
         operator="over"
         in2="SourceAlpha"
         in="result8"
         id="feComposite4" />
      <feColorMatrix
         values="1 0 0 0 0 0 1 0 0 0 0 0 1 0 0 0 0 0 1 0 "
         result="result10"
         id="feColorMatrix4" />
      <feBlend
         in="result10"
         mode="normal"
         in2="result6"
         id="feBlend4" />
    </filter>
  </defs>
  <sodipodi:namedview
     id="namedview1"
     pagecolor="#505050"
     bordercolor="#ffffff"
     borderopacity="1"
     inkscape:showpageshadow="0"
     inkscape:pageopacity="0"
     inkscape:pagecheckerboard="1"
     inkscape:deskcolor="#505050">
    <inkscape:page
       x="0"
       y="0"
       width="186.0723"
       height="254.89503"
       id="page2"
       margin="0"
       bleed="0" />
  </sodipodi:namedview>
  <g
     inkscape:groupmode="layer"
     inkscape:label="Image"
     id="g1"
     transform="translate(-43.933601,-1.7012573)">
    <path
       style="fill:url(#linearGradient3);fill-opacity:1;filter:url(#filter4)"
       d="m 98.871263,243.89825 c -8.629685,-1.6923 -14.2046,-5.3973 -14.2046,-9.44016 0,-1.85094 -0.737169,-4.25724 -1.638154,-5.34732 -8.879509,-10.74314 -7.638508,-21.70424 6.199391,-54.75593 14.23364,-33.99693 15.69581,-51.17041 5.372263,-63.09835 -2.847589,-3.29013 -5.866072,-8.5188 -6.707741,-11.619273 C 87.050753,96.536746 86.138058,93.220261 85.864212,92.26725 85.590365,91.31424 82.174876,89.123101 78.274237,87.398053 54.261804,76.778616 48.463626,50.422955 66.635975,34.496238 69.952854,31.58924 75.399378,26.579227 78.739361,23.362878 85.139422,17.199722 86.8941,16.499254 98.666663,15.407886 102.7,15.033979 109.08893,14.360452 112.8643,13.911161 c 4.1401,-0.492697 7.97868,-0.220502 9.67224,0.685865 2.08077,1.113597 4.2494,1.11461 8.37422,0.0039 7.26209,-1.955478 15.73018,-0.604017 21.73081,3.468117 2.6456,1.795353 6.60281,3.264279 8.79379,3.264279 5.2149,0 11.90817,2.895524 15.18143,6.567523 1.43924,1.614562 5.33924,4.10881 8.66667,5.542773 6.0045,2.587656 12.04987,9.350824 12.04987,13.480624 0,1.150916 2.03857,3.647475 4.53017,5.547908 5.58502,4.259901 10.13649,13.327608 10.13649,20.194503 0,2.836937 1.2734,7.788567 2.82979,11.003622 3.43674,7.099367 2.88343,16.024092 -1.34831,21.747835 -1.54815,2.09398 -2.81481,5.5415 -2.81481,7.66117 0,7.84711 -11.60808,18.9207 -19.83393,18.9207 -1.66237,0 -3.52769,1.46161 -4.67946,3.66667 -6.16291,11.79892 -21.61371,18.1093 -36.72707,15 -4.35404,-0.89577 -6.89346,7.59309 -11.36758,38 -4.49388,30.54118 -6.45599,36.80263 -10.32136,32.93726 -0.9294,-0.92939 -0.67738,-5.11758 0.79129,-13.15049 1.18525,-6.48272 3.67776,-21.2968 5.53891,-32.92016 4.14273,-25.8725 7.87939,-35.96779 16.12703,-43.5702 8.88783,-8.19252 12.70755,-5.02098 4.28669,3.55925 -6.75644,6.88431 -6.1792,7.81101 4.86548,7.81101 21.24199,0 30.47774,-23.11787 15.74893,-39.4209 -3.9289,-4.348829 -4.4621,-5.599238 -3.09171,-7.250447 5.0664,-6.104643 17.04383,8.892247 17.55676,21.982767 0.43755,11.16637 12.31045,2.74179 13.67671,-9.70449 0.20232,-1.8431 1.65668,-4.98958 3.23192,-6.99216 3.684,-4.683455 3.77408,-12.43157 0.19739,-16.978598 -1.89376,-2.407524 -2.66667,-5.409045 -2.66667,-10.355766 0,-8.171994 -3.56875,-14.966089 -9.46206,-18.013638 -2.73808,-1.415919 -3.87127,-2.997639 -3.87127,-5.403572 0,-10.515175 -15.47679,-15.051882 -22.27649,-6.529901 -3.96208,4.96563 -7.58871,6.011809 -8.90941,2.570116 -1.10262,-2.873393 0.9598,-6.306703 6.5629,-10.925254 5.75848,-4.746627 3.99277,-7.341792 -4.99523,-7.341792 -4.01785,0 -7.0447,-1.065722 -10.84436,-3.818182 -6.03987,-4.37526 -14.47221,-5.126992 -20.80078,-1.854362 -3.48786,1.803642 -4.24372,1.722078 -9.26712,-1 -5.46951,-2.963819 -5.46951,-2.963819 -10.78643,-0.08358 -4.54134,2.460101 -6.00436,2.669256 -10.029649,1.433858 -16.696768,-5.124384 -25.693676,19.301939 -10.427157,28.309406 5.396068,3.183758 5.659864,5.979846 0.784615,8.316492 -2.422342,1.160999 -3.8888,3.097444 -4.346427,5.739421 -0.549969,3.175087 -1.366947,3.987251 -4.010886,3.987251 -4.054441,0 -5.298383,-5.799838 -2.243813,-10.461701 1.759062,-2.684669 1.646067,-3.319306 -1.230985,-6.91382 -1.742309,-2.176796 -3.541969,-5.93392 -3.999244,-8.349165 -0.941182,-4.971159 -2.539192,-4.973776 -6.245017,-0.01023 -8.24302,11.04063 -1.455051,30.123813 12.287929,34.545352 2.627657,0.845398 5.414633,2.038642 6.19328,2.651652 0.862431,0.67897 3.0832,-0.653281 5.682338,-3.408866 5.551889,-5.886069 12.997946,-8.528645 15.888006,-5.638589 2.59035,2.590351 1.26876,6.25203 -2.25652,6.25203 -5.39548,0 -11.206447,6.985716 -10.963725,13.180156 0.382378,9.758532 4.345876,14.715012 16.234175,20.301342 5.31017,2.49525 12.05115,9.28781 15.06987,15.18517 2.0475,4 2.0475,4 4.85415,-2.51853 2.58891,-6.01282 2.64471,-6.76568 0.71924,-9.70433 -1.14808,-1.75219 -1.72707,-3.76885 -1.28665,-4.48147 1.17488,-1.901 5.67547,-1.57898 6.91047,0.49444 3.39743,5.70389 12.92992,8.21221 20.22909,5.32295 6.21802,-2.4613 8.1705,-2.23309 8.1705,0.95497 0,5.13833 -17.11693,8.94901 -23.89741,5.32021 -3.0945,-1.65613 -8.05585,7.75164 -12.64409,23.97587 -1.75801,6.2164 -5.97799,19.34915 -9.37774,29.18389 -5.92048,17.12666 -6.1728,18.46607 -5.9785,31.73633 0.21246,14.51106 -0.49786,17.29207 -3.40223,13.3201 -5.96898,-8.16306 -2.77629,-35.18337 6.64894,-56.2711 8.93497,-19.99086 6.25013,-35.8467 -7.42596,-43.85541 -4.30685,-2.52209 -4.30685,-2.52209 -3.12849,1.33333 3.41603,11.17675 -0.16493,27.52233 -12.382757,56.52208 -14.554141,34.54513 -13.274174,47.23976 5.373165,53.29069 4.018772,1.30406 4.976462,2.20309 4.458162,4.18507 -0.46611,1.78239 0.0412,2.52424 1.72623,2.52424 1.31248,0 2.68976,-1.16033 3.06062,-2.57851 0.44139,-1.68786 2.31519,-2.88634 5.42486,-3.46972 2.86807,-0.53805 5.58063,-2.15805 6.84529,-4.08816 2.50911,-3.82939 6.03324,-4.20837 6.03324,-0.6488 0,2.82406 -7.10703,9.45185 -10.1353,9.45185 -1.06188,0 -2.501,1.5 -3.19803,3.33334 -0.69703,1.83333 -2.13311,3.33333 -3.19128,3.33333 -1.05818,0 -2.72303,0.23282 -3.69967,0.51738 -0.97664,0.28455 -4.38365,0.006 -7.571117,-0.61912 z"
       id="path1"
       sodipodi:nodetypes="ssssssssssssssssssssssssssssssssssssssssssssssssssssssssssssssssssssssssssssssssssssssssssssssss"
       transform="matrix(1.0052035,0,0,0.99974366,-0.26154579,0.03310619)"
       inkscape:export-filename="logo10.png"
       inkscape:export-xdpi="99.058273"
       inkscape:export-ydpi="99.058273" />
    <path
       style="fill:none;stroke-width:0.662666"
       d="m 144.12991,103.36073 c -5.41714,-2.763 -6.85889,-3.217 -10.33519,-3.25452 -4.39634,-0.0475 -7.45049,1.09681 -9.36281,3.50786 -0.93055,1.17324 -1.5909,1.39468 -3.16399,1.06101 -3.38507,-0.71803 -8.80397,-3.83603 -12.0166,-6.914268 -2.77505,-2.658968 -3.02869,-3.15212 -2.63563,-5.124485 0.23921,-1.200312 0.75904,-2.292677 1.15519,-2.427477 1.64319,-0.55914 7.5698,-5.909038 8.71137,-7.863662 1.60209,-2.743169 2.29017,-9.061249 1.13801,-10.449517 -0.46669,-0.562326 -0.66883,-1.202112 -0.44919,-1.421746 0.62449,-0.624495 -1.20879,-3.706019 -3.29152,-5.532633 -2.04082,-1.789854 -5.74943,-3.313332 -8.06567,-3.313332 -2.51092,0 -4.09461,-2.274679 -4.09461,-5.881163 0,-5.576473 -0.64443,-7.20925 -4.288069,-10.864664 -4.35134,-4.3654 -5.270157,-6.00976 -4.334722,-7.757636 1.127325,-2.106426 2.90449,-2.665852 8.468781,-2.665852 2.87895,0 5.43541,-0.200957 5.68102,-0.446571 0.84926,-0.849262 9.24492,-1.136869 13.35898,-0.457633 2.75569,0.454968 3.92986,0.451299 15.73832,-0.04918 4.25495,-0.18034 7.12366,-0.04917 7.12366,0.325731 0,0.345212 0.40149,0.627658 0.89219,0.627658 1.18803,0 4.75824,1.805703 5.61766,2.841249 0.37692,0.454163 0.63195,3.355423 0.56673,6.447246 -0.10341,4.902138 0.0945,6.002021 1.54641,8.595161 2.1999,3.928987 6.02317,6.06985 10.91845,6.113838 3.63592,0.03267 7.62788,-1.123857 7.62788,-2.209903 0,-0.32025 0.5964,-0.582272 1.32533,-0.582272 0.72893,0 1.92173,-0.596399 2.65066,-1.325332 1.63475,-1.634747 4.76011,-1.719864 6.083,-0.165667 0.54289,0.637816 1.64436,2.458358 2.44771,4.045648 0.80334,1.58729 2.96159,4.420188 4.79611,6.29533 4.25076,4.344888 5.07246,5.950891 5.87782,11.488039 0.72732,5.000709 1.57257,8.416941 3.11816,12.602649 1.44539,3.914386 0.70635,10.132639 -1.20427,10.132639 -0.72422,0 -1.14807,-0.272939 -0.9419,-0.606532 0.62479,-1.010927 -8.5338,-9.996128 -10.18901,-9.996128 -0.8072,0 -1.92504,-0.457422 -2.48411,-1.016493 -0.58341,-0.583407 -1.55142,-0.846716 -2.272,-0.61801 -0.69695,0.221204 -1.25551,0.08381 -1.25551,-0.30884 0,-0.389027 -1.0437,-0.707322 -2.31933,-0.707322 -1.27563,0 -2.31933,0.270282 -2.31933,0.600627 0,0.330346 -0.55195,0.456291 -1.22654,0.27988 -0.6746,-0.176412 -1.65086,0.07515 -2.16945,0.559038 -0.51859,0.483883 -1.38309,0.972732 -1.92112,1.086332 -1.27188,0.268551 -3.82028,2.82679 -4.08501,4.100785 -0.1136,0.5467 -0.50356,1.206042 -0.86658,1.465206 -0.36303,0.259164 -0.66123,2.594102 -0.66267,5.188752 -0.003,5.53606 -0.87177,6.59936 -5.3915,6.59936 -1.54893,0 -3.00053,0.2982 -3.22579,0.66267 -0.82157,1.32933 -4.11348,0.47493 -10.27132,-2.66587 z"
       id="path6" />
    <path
       style="fill:none;stroke-width:0.662666"
       d="m 144.12991,103.36073 c -5.41714,-2.763 -6.85889,-3.217 -10.33519,-3.25452 -4.39634,-0.0475 -7.45049,1.09681 -9.36281,3.50786 -0.93055,1.17324 -1.5909,1.39468 -3.16399,1.06101 -3.38507,-0.71803 -8.80397,-3.83603 -12.0166,-6.914268 -2.77505,-2.658968 -3.02869,-3.15212 -2.63563,-5.124485 0.23921,-1.200312 0.75904,-2.292677 1.15519,-2.427477 1.64319,-0.55914 7.5698,-5.909038 8.71137,-7.863662 1.60209,-2.743169 2.29017,-9.061249 1.13801,-10.449517 -0.46669,-0.562326 -0.66883,-1.202112 -0.44919,-1.421746 0.62449,-0.624495 -1.20879,-3.706019 -3.29152,-5.532633 -2.04082,-1.789854 -5.74943,-3.313332 -8.06567,-3.313332 -2.51092,0 -4.09461,-2.274679 -4.09461,-5.881163 0,-5.576473 -0.64443,-7.20925 -4.288069,-10.864664 -4.35134,-4.3654 -5.270157,-6.00976 -4.334722,-7.757636 1.127325,-2.106426 2.90449,-2.665852 8.468781,-2.665852 2.87895,0 5.43541,-0.200957 5.68102,-0.446571 0.84926,-0.849262 9.24492,-1.136869 13.35898,-0.457633 2.75569,0.454968 3.92986,0.451299 15.73832,-0.04918 4.25495,-0.18034 7.12366,-0.04917 7.12366,0.325731 0,0.345212 0.40149,0.627658 0.89219,0.627658 1.18803,0 4.75824,1.805703 5.61766,2.841249 0.37692,0.454163 0.63195,3.355423 0.56673,6.447246 -0.10341,4.902138 0.0945,6.002021 1.54641,8.595161 2.1999,3.928987 6.02317,6.06985 10.91845,6.113838 3.63592,0.03267 7.62788,-1.123857 7.62788,-2.209903 0,-0.32025 0.5964,-0.582272 1.32533,-0.582272 0.72893,0 1.92173,-0.596399 2.65066,-1.325332 1.63475,-1.634747 4.76011,-1.719864 6.083,-0.165667 0.54289,0.637816 1.64436,2.458358 2.44771,4.045648 0.80334,1.58729 2.96159,4.420188 4.79611,6.29533 4.25076,4.344888 5.07246,5.950891 5.87782,11.488039 0.72732,5.000709 1.57257,8.416941 3.11816,12.602649 1.44539,3.914386 0.70635,10.132639 -1.20427,10.132639 -0.72422,0 -1.14807,-0.272939 -0.9419,-0.606532 0.62479,-1.010927 -8.5338,-9.996128 -10.18901,-9.996128 -0.8072,0 -1.92504,-0.457422 -2.48411,-1.016493 -0.58341,-0.583407 -1.55142,-0.846716 -2.272,-0.61801 -0.69695,0.221204 -1.25551,0.08381 -1.25551,-0.30884 0,-0.389027 -1.0437,-0.707322 -2.31933,-0.707322 -1.27563,0 -2.31933,0.270282 -2.31933,0.600627 0,0.330346 -0.55195,0.456291 -1.22654,0.27988 -0.6746,-0.176412 -1.65086,0.07515 -2.16945,0.559038 -0.51859,0.483883 -1.38309,0.972732 -1.92112,1.086332 -1.27188,0.268551 -3.82028,2.82679 -4.08501,4.100785 -0.1136,0.5467 -0.50356,1.206042 -0.86658,1.465206 -0.36303,0.259164 -0.66123,2.594102 -0.66267,5.188752 -0.003,5.53606 -0.87177,6.59936 -5.3915,6.59936 -1.54893,0 -3.00053,0.2982 -3.22579,0.66267 -0.82157,1.32933 -4.11348,0.47493 -10.27132,-2.66587 z"
       id="path7" />
  </g>
</svg>
