<?xml version="1.0" encoding="UTF-8" standalone="no"?>
<!-- Created with Inkscape (http://www.inkscape.org/) -->

<svg
   version="1.1"
   id="svg1"
   width="266.66666"
   height="266.66666"
   viewBox="0 0 266.66666 266.66666"
   sodipodi:docname="logoblack1.png"
   inkscape:version="1.4 (e7c3feb1, 2024-10-09)"
   inkscape:export-filename="logoblack1.svg"
   inkscape:export-xdpi="96"
   inkscape:export-ydpi="96"
   xmlns:inkscape="http://www.inkscape.org/namespaces/inkscape"
   xmlns:sodipodi="http://sodipodi.sourceforge.net/DTD/sodipodi-0.dtd"
   xmlns="http://www.w3.org/2000/svg"
   xmlns:svg="http://www.w3.org/2000/svg">
  <defs
     id="defs1" />
  <sodipodi:namedview
     id="namedview1"
     pagecolor="#505050"
     bordercolor="#ffffff"
     borderopacity="1"
     inkscape:showpageshadow="0"
     inkscape:pageopacity="0"
     inkscape:pagecheckerboard="1"
     inkscape:deskcolor="#505050"
     inkscape:zoom="1.7493736"
     inkscape:cx="150.33952"
     inkscape:cy="151.48279"
     inkscape:window-width="1360"
     inkscape:window-height="783"
     inkscape:window-x="62"
     inkscape:window-y="25"
     inkscape:window-maximized="0"
     inkscape:current-layer="g1"
     inkscape:export-bgcolor="#6b6b6b00">
    <inkscape:page
       x="0"
       y="0"
       width="266.66666"
       height="266.66666"
       id="page2"
       margin="0"
       bleed="0" />
  </sodipodi:namedview>
  <g
     inkscape:groupmode="layer"
     inkscape:label="Image"
     id="g1">
    <path
       style="fill:#ffffff"
       d="m 94.260057,247.36083 c -8.78662,-2.66622 -12.43466,-5.95334 -10.53867,-9.49603 0.85648,-1.60036 0.46467,-2.90046 -1.37617,-4.56641 -8.48408,-7.67798 -7.16943,-22.76107 4.35862,-50.00659 15.825133,-37.40129 18.324093,-61.17663 7.10529,-67.60039 -2.8086,-1.60817 -7.16104,-9.77152 -8.17649,-15.33563 -0.93517,-5.12428 -4.25142,-8.249359 -10.38853,-9.789669 -20.68264,-5.19102 -26.40726,-36.635835 -9.31807,-51.183333 2.79321,-2.377767 8.12604,-7.224539 11.85074,-10.770603 6.92469,-6.592581 13.46084,-9.108799 19.535,-7.520371 1.61818,0.423163 5.817263,-0.251761 9.331283,-1.499832 5.86471,-2.082962 6.86488,-2.098142 12.18526,-0.184948 4.00915,1.441683 6.77963,1.711317 8.98619,0.874571 5.63751,-2.137783 18.07667,-0.488233 22.83234,3.027781 2.3658,1.749111 5.79312,3.056748 7.61627,2.905859 5.02207,-0.415639 11.31339,2.090004 14.87874,5.925757 1.75783,1.891154 6.21844,4.784284 9.91246,6.429178 6.6616,2.966312 9.97287,6.45944 11.90058,12.554142 0.55073,1.741211 3.06786,4.980278 5.59362,7.197925 6.0859,5.343492 8.47272,10.269237 8.70181,17.95818 0.1097,3.681528 1.32475,8.263914 2.89473,10.916974 3.73905,6.318509 3.63901,16.150019 -0.21739,21.366089 -1.6077,2.17452 -2.93626,5.02797 -2.95236,6.341 -0.10494,8.55546 -8.5455,18.14812 -18.25303,20.74449 -3.14473,0.84108 -5.71769,2.01821 -5.71769,2.61583 0,7.97721 -18.72677,17.74407 -31.90391,16.63935 -10.72732,-0.89934 -12.18868,2.43252 -17.42164,39.72098 -3.61438,25.75494 -5.73103,32.89782 -9.12671,30.79918 -0.8942,-0.55265 -0.91657,-2.29482 -0.0661,-5.15049 0.70683,-2.37345 3.08055,-16.84579 5.27493,-32.16077 4.7751,-33.32633 9.83214,-47.19878 19.51964,-53.54627 5.72497,-3.75115 6.41055,-0.22839 1.00714,5.17502 -5.50531,5.50531 -5.47417,7.59246 0.13688,9.17478 13.81688,3.89638 28.57979,-8.48911 28.57979,-23.97729 0,-6.53495 -6.10068,-18.98082 -9.30397,-18.98082 -0.74948,0 -1.3627,-1.2 -1.3627,-2.66667 0,-4.06116 4.21642,-3.27932 9.01507,1.67164 4.71943,4.86921 8.31827,13.73666 8.31827,20.496 0,5.15148 0.1174,5.20114 5.85707,2.47748 4.9914,-2.36857 8.80959,-8.18999 8.80959,-13.43157 0,-2.03959 1.24919,-5.03804 2.77597,-6.66322 4.39321,-4.67636 4.76236,-12.28599 0.87253,-17.985899 -2.34613,-3.43786 -3.07885,-5.96559 -2.62522,-9.056386 0.99979,-6.811955 -3.008,-15.369057 -9.0803,-19.387511 -3.86529,-2.55793 -5.27631,-4.405483 -5.27631,-6.908677 0,-11.076157 -14.49327,-14.731903 -22.78733,-5.747819 -4.9544,5.366582 -7.90831,5.914968 -7.84969,1.457279 0.0382,-2.903367 3.61145,-7.271386 8.46367,-10.346129 5.34229,-3.385283 0.74022,-7.497591 -7.89056,-7.050827 -4.41988,0.228791 -6.55117,-0.471524 -9.8291,-3.229722 -5.74039,-4.830226 -12.13311,-5.822815 -19.4658,-3.022434 -5.39516,2.060428 -6.1716,2.074306 -8.90583,0.159178 -3.71643,-2.603088 -11.70508,-2.722451 -15.11931,-0.225906 -1.76632,1.291566 -4.67602,1.653775 -9.382753,1.167998 -16.70982,-1.724606 -24.20186,15.378696 -11.89996,27.165987 6.92849,6.638662 7.17359,7.497776 2.71829,9.52775 -2.00869,0.91522 -3.72253,3.196416 -4.41809,5.880686 -0.62501,2.411992 -1.99824,4.38544 -3.05163,4.38544 -2.54236,0 -3.26555,-6.897903 -1.13965,-10.870187 1.40756,-2.630059 1.29138,-3.512502 -0.76105,-5.780415 -1.33222,-1.472081 -3.44944,-5.710846 -4.70493,-9.419478 -2.28272,-6.742967 -2.28272,-6.742967 -5.7611,-2.609151 -10.74306,12.767404 -4.53823,34.533038 10.88759,38.192024 1.96014,0.46495 4.54879,1.69884 5.75254,2.74198 1.93787,1.67932 2.52278,1.42736 5.10511,-2.19919 5.29661,-7.438424 17.372903,-11.161206 17.372903,-5.355586 0,1.937226 -1.13742,2.927486 -4.02611,3.505216 -15.905793,3.18116 -13.177343,25.689509 4.02611,33.213389 5.79327,2.53367 15.31481,11.70827 17.41628,16.78166 2.12863,5.13897 2.77198,4.82519 6.22838,-3.03771 2.6843,-6.10646 2.78293,-7.0531 1,-9.59858 -4.1525,-5.92852 -0.65846,-8.77513 4.14868,-3.37995 5.45491,6.12218 15.42124,8.09259 22.43429,4.4354 2.68742,-1.40145 4.32257,-1.60256 5.27619,-0.64893 2.8363,2.8363 -7.13478,8.02951 -15.41684,8.02951 -6.31754,0 -11.87887,16.00099 -20.39027,58.66666 -6.44293,32.29692 -14.74262,49.33333 -24.03389,49.33333 -3.332303,0 -2.2326,-3.1733 2.07928,-6 3.59717,-2.35816 3.94379,-3.12942 2.99616,-6.66667 -2.59187,-9.67478 -0.97936,-32.93527 4.27515,-61.66909 3.84764,-21.04047 4.79436,-28.72313 3.67715,-29.84033 -1.1172,-1.11721 -1.72731,-0.17257 -2.3697,3.66909 -1.74124,10.41289 -6.15563,27.00245 -12.70578,47.74912 -8.351503,26.45217 -9.311653,33.95817 -5.458193,42.66956 2.74263,6.20017 2.74928,8.75499 0.0228,8.75499 -8.93837,0 -8.06558,-24.65354 2.00613,-56.66667 12.247613,-38.92926 14.413603,-52.33662 8.929283,-55.27174 -2.6337,-1.40951 -2.68278,-1.1835 -1.93538,8.91278 1.03388,13.96631 -1.31531,23.21204 -13.059683,51.39911 -14.2071,34.09774 -13.67304,43.51805 2.94808,52.00128 10.291173,5.25249 9.671333,8.91496 -0.83288,4.92127 -1.98278,-0.75385 -3.88633,-1.08936 -4.23011,-0.74558 -0.34379,0.34379 2.64838,1.57668 6.64925,2.73977 7.554473,2.19614 11.678983,1.71214 11.678983,-1.37048 0,-0.98723 2.55,-3.00809 5.66667,-4.49081 3.11666,-1.48272 6.68788,-3.43958 7.93604,-4.34857 1.24816,-0.90899 2.70442,-1.21767 3.23613,-0.68596 1.36627,1.36626 -6.15288,8.88328 -9.80189,9.79913 -1.74114,0.43699 -3.03695,1.7775 -3.03695,3.14169 0,3.89385 -8.95466,5.29986 -17.411203,2.73381 z m 21.821813,-31.81789 c 1.11842,-2.7952 3.62063,-13.4452 5.56046,-23.66666 5.50994,-29.03317 10.69687,-48.07748 17.31796,-63.58448 0.6213,-1.45513 0.41314,-2.33333 -0.55309,-2.33333 -1.80647,0 -6.43382,10.05875 -10.73409,23.33333 -1.66293,5.13333 -5.94364,17.68653 -9.51268,27.896 -8.18042,23.40059 -10.07371,58.337 -2.07856,38.35514 z m 5.011,-64.86 c 0.11379,-1.49846 0.0758,-4.22447 -0.0843,-6.05781 -0.26851,-3.07322 -3.78536,14.14258 -3.81323,18.66667 -0.0165,2.674 3.63372,-9.13461 3.89757,-12.60886 z m 16.63801,-50.65729 c 0.83428,-5.56338 0.45759,-6.923389 -3.85095,-13.903779 -5.37206,-8.703433 -7.1132,-16.357853 -4.9839,-21.910298 1.95255,-5.091515 4.10856,-3.304899 4.10856,3.404622 0,18.729666 20.40259,28.973445 35.21077,17.678696 4.07554,-3.10857 5.21834,-3.46616 6.16779,-1.92992 3.25769,5.27106 -11.75436,12.742759 -23.22416,11.558969 -7.1567,-0.73864 -7.1567,-0.73864 -8.32442,4.79678 -1.80178,8.54111 -6.3798,8.81464 -5.10369,0.30493 z m -27.39295,-5.23726 c 0,-1.01021 0.8693,-2.558199 1.93179,-3.439989 3.83117,-3.17959 5.05626,-10.03972 2.77005,-15.511391 -2.62253,-6.276609 -0.19486,-8.995094 3.76879,-4.220255 3.60832,4.346783 2.56208,17.027606 -1.78681,21.656785 -3.44663,3.66877 -6.68382,4.40246 -6.68382,1.51485 z m 75.84079,-0.49659 c -0.0876,-0.55 -0.0629,-4.299999 0.0547,-8.333329 0.24859,-8.520931 -2.67864,-14.342786 -9.12673,-18.151766 -4.38254,-2.58883 -5.483,-5.848233 -1.97452,-5.848233 10.35972,0 21.74084,23.458999 15.20296,31.336658 -1.76949,2.1321 -3.89455,2.64166 -4.15644,0.99667 z M 149.90549,71.748257 c -0.51284,-0.51284 -0.56951,-2.867006 -0.12593,-5.231482 1.00965,-5.381935 -2.33567,-12.849128 -6.8353,-15.257256 -3.99281,-2.136886 -4.29351,-5.301046 -0.50377,-5.301046 3.83203,0 10.04641,6.579021 11.62926,12.311649 2.08203,7.540502 -0.79383,16.84857 -4.16426,13.478135 z M 122.50827,51.872188 c -2.08458,-2.650113 -3.23149,-3.139658 -5.09678,-2.1755 -8.23322,4.255718 -20.141923,2.033432 -26.308733,-4.90948 -4.44823,-5.008057 -0.59568,-6.519078 5.25107,-2.059539 8.856543,6.755207 20.821383,4.893273 22.671003,-3.527993 1.30486,-5.940991 4.64643,-5.016486 4.64643,1.285517 0,3.797941 0.88946,6.03708 3.3103,8.333333 1.82066,1.726971 3.32066,3.889946 3.33333,4.806613 0.0404,2.925212 -5.02072,1.788747 -7.80662,-1.752951 z"
       id="path1" />
  </g>
</svg>
